#!OML:ASF H:\Terrain\Patient Classification 1\Animal1\Tuesday\Animal1.ASF
:FULLY-SPECIFIED
:DEGREES
1560
root 12.3391 16.0814 -17.8714 -357.933 -66.881 3.23881
lowerback 2.84992 -0.111714 -1.66394
upperback 3.32705 -0.203095 -1.0509
thorax 1.81702 -0.142725 -0.143606
lowerneck -7.57446 4.77218 -3.15753
upperneck -2.22925 6.56123 -3.96002
head 0.590032 3.21959 -0.519502
rclavicle -2.60905e-014 -1.59028e-015
rhumerus -9.70455 15.9365 -77.1476
rradius 17.172
rwrist -28.9458
rhand -25.7036 31.9781
rfingers 7.12502
rthumb 0.832031 1.99998
lclavicle -2.60905e-014 -1.59028e-015
lhumerus -12.9412 -2.98854 89.3359
lradius 20.3605
lwrist -19.3868
lhand 5.4343 41.3474
lfingers 7.12502
lthumb 30.7841 68.7898
rfemur -31.4322 -5.08469 21.1353
rtibia 50.8511
rfoot -9.97758 -25.1436
rtoes 16.2034
lfemur -20.6228 -7.50779 -27.9923
ltibia 28.3904
lfoot -13.6396 16.6884
ltoes 25.8101
1561
root 12.2534 16.0834 -17.893 -359.076 -65.6158 4.9383
lowerback 2.44464 -0.180436 -2.69885
upperback 3.25443 -0.292888 -1.15977
thorax 1.97706 -0.20873 0.323057
lowerneck -7.98815 4.82106 -3.36872
upperneck -1.81919 6.68325 -3.96567
head 0.781666 3.26604 -0.466543
rclavicle 1.45113e-014 -6.36111e-015
rhumerus -9.5355 15.7963 -76.8373
rradius 17.0026
rwrist -28.6046
rhand -25.3673 32.3725
rfingers 7.12502
rthumb 1.15682 2.39588
lclavicle 1.45113e-014 -6.36111e-015
lhumerus -12.7754 -2.78055 89.3854
lradius 20.0774
lwrist -18.8802
lhand 4.43164 40.6556
lfingers 7.12502
lthumb 29.8277 68.2739
rfemur -31.6149 -3.57763 19.8734
rtibia 48.5499
rfoot -10.0248 -25.8766
rtoes 14.4553
lfemur -20.6318 -7.95956 -28.6111
ltibia 27.9806
lfoot -13.2574 16.2758
ltoes 25.8798
1562
root 12.1647 16.0865 -17.9209 -358.469 -64.4408 4.84682
lowerback 1.89517 -0.202739 -3.08792
upperback 3.17966 -0.302485 -1.05012
thorax 2.2124 -0.223687 0.650626
lowerneck -8.09535 4.83224 -3.48299
upperneck -1.77009 6.716 -3.98955
head 0.81215 3.27995 -0.450895
rclavicle -1.98785e-014 -5.96354e-016
rhumerus -9.55244 16.286 -76.5192
rradius 17.2063
rwrist -28.8735
rhand -25.7801 32.5965
rfingers 7.12502
rthumb 0.758133 2.6181
lclavicle -1.98785e-014 -5.96354e-016
lhumerus -12.4346 -1.64872 89.4327
lradius 19.6488
lwrist -19.405
lhand 2.86229 40.4436
lfingers 7.12502
lthumb 28.329 68.3208
rfemur -31.7665 -1.495 19.2233
rtibia 45.9754
rfoot -11.1244 -26.44
rtoes 16.2381
lfemur -20.8886 -8.38983 -28.3721
ltibia 27.689
lfoot -12.9098 15.7724
ltoes 25.5614
1563
root 12.0936 16.1118 -17.916 -356.522 -63.204 2.55109
lowerback 1.9827 -0.233711 -1.91276
upperback 3.26115 -0.342086 -0.782054
thorax 2.24024 -0.219897 0.26846
lowerneck -8.10676 4.86062 -3.56976
upperneck -1.7097 6.76618 -3.96194
head 0.829073 3.30484 -0.425781
rclavicle -6.33626e-014 1.21259e-014
rhumerus -9.51295 16.679 -76.1974
rradius 17.3016
rwrist -29.1038
rhand -26.1038 32.5891
rfingers 7.12502
rthumb 0.445467 2.60987
lclavicle -6.33626e-014 1.21259e-014
lhumerus -12.18 -1.03236 89.407
lradius 19.5291
lwrist -19.7205
lhand 2.35348 41.0475
lfingers 7.12502
lthumb 27.8426 69.0044
rfemur -30.9358 0.816839 19.3769
rtibia 43.1723
rfoot -12.9082 -26.7998
rtoes 18.379
lfemur -20.4692 -8.92865 -27.2519
ltibia 27.599
lfoot -12.8476 15.4277
ltoes 23.5571
1564
root 12.0251 16.1368 -17.9089 -355.09 -61.839 0.79983
lowerback 2.18877 -0.257566 -0.803085
upperback 3.28394 -0.37304 -0.596696
thorax 2.14132 -0.211366 -0.161484
lowerneck -8.02223 4.88278 -3.61665
upperneck -1.78804 6.79282 -3.94408
head 0.787561 3.32255 -0.415715
rclavicle -3.14577e-014 1.21259e-014
rhumerus -9.54659 17.0323 -75.9401
rradius 17.2444
rwrist -29.0402
rhand -26.9801 33.1657
rfingers 7.12502
rthumb -0.40088 3.18631
lclavicle -3.14577e-014 1.21259e-014
lhumerus -12.0874 -0.885924 89.3243
lradius 19.6306
lwrist -19.979
lhand 2.91403 41.3732
lfingers 7.12502
lthumb 28.3784 69.2422
rfemur -30.0414 3.13955 19.2918
rtibia 40.2564
rfoot -15.1961 -27.2146
rtoes 21.3711
lfemur -20.1198 -9.35745 -26.336
ltibia 27.6375
lfoot -12.8294 14.9196
ltoes 21.3578
1565
root 11.9474 16.1424 -17.9137 -354.972 -60.4983 0.736383
lowerback 2.22581 -0.294605 -0.679814
upperback 3.19923 -0.421269 -0.538195
thorax 2.03292 -0.232112 -0.169685
lowerneck -7.78953 4.97382 -3.70002
upperneck -1.9306 6.90378 -3.99489
head 0.702277 3.38502 -0.423703
rclavicle -5.28767e-014 1.78906e-014
rhumerus -9.75037 17.7929 -75.7128
rradius 17.2902
rwrist -29.1483
rhand -27.6137 33.9556
rfingers 7.12502
rthumb -1.01285 3.97824
lclavicle -5.28767e-014 1.78906e-014
lhumerus -12.1709 -0.555492 89.2467
lradius 19.6919
lwrist -20.2277
lhand 2.98351 41.3702
lfingers 7.12502
lthumb 28.4448 69.2281
rfemur -29.4537 5.55618 18.3367
rtibia 37.398
rfoot -16.9674 -28.0281
rtoes 24.8052
lfemur -19.9826 -9.7436 -26.1774
ltibia 27.631
lfoot -12.9453 14.215
ltoes 19.7934
